<?xml version="1.0" standalone="no"?>
<!DOCTYPE svg PUBLIC "-//W3C//DTD SVG 20010904//EN"
 "http://www.w3.org/TR/2001/REC-SVG-20010904/DTD/svg10.dtd">
<svg version="1.0" xmlns="http://www.w3.org/2000/svg"
 width="512.000000pt" height="512.000000pt" viewBox="0 0 512.000000 512.000000"
 preserveAspectRatio="xMidYMid meet">
<metadata>
Created by potrace 1.11, written by Peter Selinger 2001-2013
</metadata>
<g transform="translate(0.000000,512.000000) scale(0.100000,-0.100000)"
fill="#000000" stroke="none">
<path d="M475 5096 c-212 -58 -371 -210 -447 -427 l-23 -64 -2 -2020 c-1
-1684 1 -2031 12 -2083 8 -35 33 -102 56 -150 79 -164 251 -298 431 -337 52
-11 406 -13 2053 -14 2214 -1 2057 -6 2212 69 162 79 300 255 338 430 11 54
13 400 14 2060 1 2223 6 2050 -70 2208 -31 64 -57 100 -117 160 -93 93 -154
128 -317 180 -11 4 -929 8 -2040 9 l-2020 2 -80 -23z"/>
</g>
</svg>
