<?xml version="1.0" encoding="utf-8"?>
<!-- Generator: Adobe Illustrator 16.0.0, SVG Export Plug-In . SVG Version: 6.00 Build 0)  -->
<!DOCTYPE svg PUBLIC "-//W3C//DTD SVG 1.1 Tiny//EN" "http://www.w3.org/Graphics/SVG/1.1/DTD/svg11-tiny.dtd">
<svg version="1.1" baseProfile="tiny" id="Layer_1" xmlns="http://www.w3.org/2000/svg" xmlns:xlink="http://www.w3.org/1999/xlink"
	 x="0px" y="0px" width="24px" height="24px" viewBox="0 0 24 24" xml:space="preserve">
<g>
	<path d="M23,2.1H1c-0.221,0-0.4,0.18-0.4,0.4v19c0,0.221,0.18,0.4,0.4,0.4h22c0.221,0,0.4-0.18,0.4-0.4v-19
		C23.4,2.279,23.221,2.1,23,2.1z M22.6,2.9V6.1H1.4V2.9H22.6z M1.4,21.1V6.9H22.6V21.1H1.4z"/>
	<circle cx="3.404" cy="4.484" r="0.405"/>
	<circle cx="5.088" cy="4.484" r="0.405"/>
	<circle cx="6.732" cy="4.484" r="0.405"/>
	<path d="M16.718,10.279l-5.782,5.753l-3.691-2.849c-0.173-0.136-0.426-0.104-0.561,0.072c-0.135,0.175-0.103,0.426,0.072,0.561
		l3.969,3.063c0.008,0.006,0.018,0.004,0.025,0.009c0.066,0.045,0.141,0.075,0.219,0.075c0.055,0,0.109-0.014,0.161-0.037
		c0.018-0.008,0.031-0.021,0.048-0.031c0.024-0.016,0.052-0.027,0.073-0.049l6.031-6c0.156-0.155,0.157-0.409,0.001-0.565
		C17.128,10.125,16.875,10.122,16.718,10.279z"/>
</g>
</svg>
