<svg width="70" height="70" viewBox="0 0 70 70" fill="none" xmlns="http://www.w3.org/2000/svg">
<circle cx="35" cy="35" r="33.5" stroke="url(#paint0_linear)" stroke-opacity="0.8" stroke-width="3"/>
<path d="M50.077 53.6462H42.6924C42.4462 53.6462 42.2001 53.8309 42.2001 54.1385C42.2001 54.4462 42.3847 54.6309 42.6924 54.6309H50.077C50.3231 54.6309 50.5693 54.4462 50.5693 54.1385C50.5693 53.8309 50.3231 53.6462 50.077 53.6462Z" fill="url(#paint1_linear)"/>
<path d="M53.1539 53.6462H51.9231C51.6769 53.6462 51.4308 53.8309 51.4308 54.1385C51.4308 54.4462 51.6154 54.6309 51.9231 54.6309H53.1539C53.4 54.6309 53.6462 54.4462 53.6462 54.1385C53.6462 53.8309 53.4 53.6462 53.1539 53.6462Z" fill="url(#paint2_linear)"/>
<path d="M17.4616 23.8C17.7077 23.8 17.9539 23.6154 17.9539 23.3077V18.3846C17.9539 18.1385 17.7693 17.8923 17.4616 17.8923C17.1539 17.8923 17.0308 18.1385 17.0308 18.3846V23.3077C17.0308 23.5539 17.2154 23.8 17.4616 23.8Z" fill="url(#paint3_linear)"/>
<path d="M17.4616 17.0309C17.7077 17.0309 17.9539 16.8463 17.9539 16.5386V15.9232C17.9539 15.6771 17.7693 15.4309 17.4616 15.4309C17.1539 15.4309 17.0308 15.6771 17.0308 15.9232V16.5386C17.0308 16.7848 17.2154 17.0309 17.4616 17.0309Z" fill="url(#paint4_linear)"/>
<path d="M19.3077 38.5694C19.5539 38.5694 19.8 38.3848 19.8 38.0771C19.8 37.7694 19.5539 37.6463 19.3077 37.6463H18.5693V36.8463C18.5693 36.6002 18.3847 36.354 18.077 36.354C17.7693 36.354 17.5847 36.5386 17.5847 36.8463V37.6463H16.8462C16.6 37.6463 16.3539 37.8309 16.3539 38.1386C16.3539 38.4463 16.5385 38.6309 16.8462 38.6309H17.6462V39.4309C17.6462 39.6771 17.8308 39.9232 18.1385 39.9232C18.4462 39.9232 18.6308 39.7386 18.6308 39.4309V38.6309H19.3077V38.5694Z" fill="url(#paint5_linear)"/>
<path d="M50.7539 17.9539H49.9539V17.1539C49.9539 16.9078 49.7693 16.6616 49.4616 16.6616C49.1539 16.6616 48.9693 16.8462 48.9693 17.1539V17.9539H48.1693C47.9232 17.9539 47.677 18.1385 47.677 18.4462C47.677 18.7539 47.8616 18.9385 48.1693 18.9385H48.9693V19.7385C48.9693 19.9847 49.1539 20.2309 49.4616 20.2309C49.7693 20.2309 49.9539 20.0462 49.9539 19.7385V18.877H50.7539C51.0001 18.877 51.2462 18.6924 51.2462 18.3847C51.2462 18.077 51.0001 17.9539 50.7539 17.9539Z" fill="url(#paint6_linear)"/>
<path d="M41.0308 43.0617C43.9847 43.0617 46.3847 40.6617 46.3847 37.6463C46.3847 36.4771 46.877 35.3078 47.677 34.5078C49.7693 32.4155 49.7693 28.9694 47.677 26.8771C46.8154 26.0155 46.3847 24.9078 46.3847 23.7386C46.3847 20.7847 43.9847 18.3232 40.9693 18.3232C39.8001 18.3232 38.6308 17.8309 37.8308 17.0309C35.7385 14.9386 32.2924 14.9386 30.2001 17.0309C29.3385 17.8924 28.2308 18.3232 27.0616 18.3232C24.1078 18.3232 21.6462 20.7232 21.6462 23.7386C21.6462 24.9078 21.1539 26.0771 20.3539 26.8771C19.3078 27.9232 18.7539 29.2155 18.7539 30.6924C18.7539 32.1078 19.3078 33.4617 20.3539 34.5078C21.2154 35.3694 21.6462 36.4771 21.6462 37.6463C21.6462 40.6001 24.0462 43.0617 27.0616 43.0617C28.2308 43.0617 29.4001 43.554 30.2001 44.354C31.2462 45.4001 32.6001 45.954 34.0154 45.954C35.3693 45.954 36.7847 45.4001 37.8308 44.354C38.7539 43.4924 39.8616 43.0617 41.0308 43.0617ZM30.9385 43.6771C29.8924 42.6309 28.5385 42.0771 27.1231 42.0771C24.6616 42.0771 22.6308 40.0463 22.6308 37.5847C22.6308 36.1694 22.077 34.8155 21.0308 33.7694C20.1693 32.9078 19.7385 31.8001 19.7385 30.6309C19.7385 29.4617 20.2308 28.2924 21.0308 27.4924C22.077 26.4463 22.6308 25.0924 22.6308 23.6771C22.6308 21.2155 24.6616 19.1847 27.1231 19.1847C28.5385 19.1847 29.8924 18.6309 30.9385 17.5847C31.8001 16.8463 32.9078 16.4155 34.077 16.4155C35.2462 16.4155 36.3539 16.8463 37.2154 17.7078C38.2616 18.6924 39.6154 19.2463 41.0308 19.2463C43.4924 19.2463 45.4616 21.2771 45.4616 23.7386C45.4616 25.154 46.0154 26.5078 47.0616 27.554C48.7847 29.2771 48.7847 32.1078 47.0616 33.8924C46.0154 34.9386 45.4616 36.2924 45.4616 37.7078C45.4616 40.1694 43.4308 42.2001 40.9693 42.2001C39.5539 42.2001 38.2001 42.754 37.1539 43.8001C35.4924 45.4617 32.6616 45.4617 30.9385 43.6771Z" fill="url(#paint7_linear)"/>
<path d="M44.9692 30.6924C44.9692 30.4462 44.7846 30.2001 44.4769 30.2001C44.2308 30.2001 43.9846 30.3847 43.9846 30.6924C43.9846 36.1693 39.4923 40.6616 33.9539 40.7231C28.4769 40.7231 23.9846 36.2308 23.9231 30.6924C23.9231 29.1539 24.2308 27.7385 24.9077 26.3847C26.6923 22.9385 30.2616 20.7231 34.0769 20.7231C38.2616 20.7231 42.0769 23.3693 43.4923 27.3693C43.5539 27.6154 43.8616 27.7385 44.1077 27.677C44.2308 27.6154 44.2923 27.5539 44.3539 27.4308C44.4154 27.3077 44.4154 27.1847 44.3539 27.0616C42.8154 22.7539 38.6923 19.8 34.0769 19.8C31.9846 19.8 29.9539 20.4154 28.1692 21.5231C26.4462 22.6308 25.0923 24.1693 24.2308 26.0154C23.5539 27.4924 23.1846 29.0924 23.1846 30.7539C23.1846 36.7847 28.1077 41.7077 34.1385 41.7077C40.1692 41.7077 44.9692 36.7231 44.9692 30.6924Z" fill="url(#paint8_linear)"/>
<path d="M43.9846 28.6616C43.9231 28.7847 43.9231 28.9078 43.9231 29.0309C43.9846 29.277 44.1692 29.4001 44.3539 29.4001H44.4154C44.5385 29.4001 44.6616 29.3386 44.7231 29.2155C44.7846 29.0924 44.8462 28.9693 44.7846 28.8462C44.7231 28.6001 44.4769 28.4155 44.2308 28.477C44.1692 28.5386 44.1077 28.6001 43.9846 28.6616Z" fill="url(#paint9_linear)"/>
<path d="M41.5231 28.2923C41.4616 28.1077 41.3385 27.9846 41.1539 27.9846L36.5385 27.3077L34.5077 23.1231C34.3231 22.8154 33.8308 22.8154 33.7077 23.1231L31.6154 27.3077L27.0616 27.9846C26.877 27.9846 26.7539 28.1077 26.6924 28.2923C26.6308 28.477 26.6924 28.6616 26.8154 28.7846L30.1385 32.0462L29.277 36.5385C29.277 36.7231 29.3385 36.9077 29.4616 36.9693C29.5847 37.0923 29.7693 37.0923 29.9539 37.0308L34.077 34.877L38.2 37.0308C38.2616 37.0923 38.3231 37.0923 38.3847 37.0923C38.5077 37.0923 38.5693 37.0923 38.6308 37.0308C38.7539 36.9077 38.8154 36.7231 38.8154 36.6L38.0154 32.0462L41.3385 28.7846C41.5231 28.6616 41.5231 28.477 41.5231 28.2923ZM37.2154 31.4923C37.0924 31.6154 37.0308 31.7385 37.0924 31.9231L37.7693 35.8L34.2616 33.9539C34.2 33.8923 34.1385 33.8923 34.077 33.8923C34.0154 33.8923 33.9539 33.8923 33.8924 33.9539L30.3847 35.8L31.0616 31.9231C31.0616 31.8 31.0616 31.6154 30.9385 31.4923L28.1077 28.7231L31.9847 28.1693C32.1077 28.1693 32.2924 28.0462 32.3539 27.9231L34.077 24.4154L35.8 27.9231C35.8616 28.0462 35.9847 28.1693 36.1693 28.1693L40.0462 28.7231L37.2154 31.4923Z" fill="url(#paint10_linear)"/>
<path d="M31 46.754C30.7539 46.6309 30.5077 46.754 30.3847 47.0001L27.6154 52.9078L25.8924 48.1078C25.8308 47.9847 25.7693 47.9232 25.6462 47.8617C25.5231 47.8001 25.4 47.8001 25.277 47.8617L20.477 49.5847L23.1231 43.8617C23.2462 43.6155 23.1231 43.3694 22.877 43.2463C22.6308 43.1232 22.3847 43.2463 22.2616 43.4924L19.1231 50.2617C19.0616 50.4463 19.0616 50.6309 19.1847 50.754C19.3077 50.8771 19.4924 50.9386 19.677 50.8771L25.0924 48.9078L27.0616 54.3232C27.1231 54.5078 27.3077 54.6309 27.4924 54.6309C27.677 54.6309 27.8616 54.5078 27.9231 54.3847L31.1231 47.4924C31.3693 47.1232 31.2462 46.8771 31 46.754Z" fill="url(#paint11_linear)"/>
<path d="M47.9847 50.6924C48.1077 50.5693 48.1693 50.3847 48.0462 50.2001L45.0924 43.9231C44.9693 43.677 44.7231 43.6154 44.477 43.677C44.2308 43.8001 44.1693 44.0462 44.2308 44.2924L46.6924 49.5847L41.8924 47.8616C41.7693 47.8001 41.6462 47.8001 41.5231 47.8616C41.4001 47.9231 41.3385 47.9847 41.277 48.1078L39.6154 52.8462L37.0308 47.2462C36.9078 47.0001 36.6616 46.9385 36.4154 47.0001C36.1693 47.1231 36.1078 47.3693 36.1693 47.6154L39.2462 54.2001C39.3078 54.3847 39.4924 54.4462 39.677 54.4462C39.8616 54.4462 40.0462 54.3231 40.1077 54.1385L42.077 48.7231L47.4924 50.6924C47.677 50.877 47.8616 50.8154 47.9847 50.6924Z" fill="url(#paint12_linear)"/>
<defs>
<linearGradient id="paint0_linear" x1="51.2195" y1="1.24227e-06" x2="17.5" y2="70" gradientUnits="userSpaceOnUse">
<stop stop-color="#9704FE"/>
<stop offset="0.9998" stop-color="#1A48EE" stop-opacity="0.739476"/>
<stop offset="0.9999" stop-color="#9E00FF" stop-opacity="0.494792"/>
<stop offset="1" stop-color="#1A48EE"/>
</linearGradient>
<linearGradient id="paint1_linear" x1="46.3847" y1="53.6462" x2="46.3847" y2="54.6309" gradientUnits="userSpaceOnUse">
<stop stop-color="#6321F7" stop-opacity="0.7"/>
<stop offset="1" stop-color="#1A48EE" stop-opacity="0.7"/>
</linearGradient>
<linearGradient id="paint2_linear" x1="52.5385" y1="53.6462" x2="52.5385" y2="54.6309" gradientUnits="userSpaceOnUse">
<stop stop-color="#6321F7" stop-opacity="0.7"/>
<stop offset="1" stop-color="#1A48EE" stop-opacity="0.7"/>
</linearGradient>
<linearGradient id="paint3_linear" x1="17.4924" y1="17.8923" x2="17.4924" y2="23.8" gradientUnits="userSpaceOnUse">
<stop stop-color="#6321F7" stop-opacity="0.7"/>
<stop offset="1" stop-color="#1A48EE" stop-opacity="0.7"/>
</linearGradient>
<linearGradient id="paint4_linear" x1="17.4924" y1="15.4309" x2="17.4924" y2="17.0309" gradientUnits="userSpaceOnUse">
<stop stop-color="#6321F7" stop-opacity="0.7"/>
<stop offset="1" stop-color="#1A48EE" stop-opacity="0.7"/>
</linearGradient>
<linearGradient id="paint5_linear" x1="18.077" y1="36.354" x2="18.077" y2="39.9232" gradientUnits="userSpaceOnUse">
<stop stop-color="#6321F7" stop-opacity="0.7"/>
<stop offset="1" stop-color="#1A48EE" stop-opacity="0.7"/>
</linearGradient>
<linearGradient id="paint6_linear" x1="49.4616" y1="16.6616" x2="49.4616" y2="20.2309" gradientUnits="userSpaceOnUse">
<stop stop-color="#6321F7" stop-opacity="0.7"/>
<stop offset="1" stop-color="#1A48EE" stop-opacity="0.7"/>
</linearGradient>
<linearGradient id="paint7_linear" x1="34.0001" y1="15.4617" x2="34.0001" y2="45.954" gradientUnits="userSpaceOnUse">
<stop stop-color="#6321F7" stop-opacity="0.7"/>
<stop offset="1" stop-color="#1A48EE" stop-opacity="0.7"/>
</linearGradient>
<linearGradient id="paint8_linear" x1="34.0769" y1="19.8" x2="34.0769" y2="41.7077" gradientUnits="userSpaceOnUse">
<stop stop-color="#6321F7" stop-opacity="0.7"/>
<stop offset="1" stop-color="#1A48EE" stop-opacity="0.7"/>
</linearGradient>
<linearGradient id="paint9_linear" x1="44.3666" y1="28.4651" x2="44.3666" y2="29.4001" gradientUnits="userSpaceOnUse">
<stop stop-color="#6321F7" stop-opacity="0.7"/>
<stop offset="1" stop-color="#1A48EE" stop-opacity="0.7"/>
</linearGradient>
<linearGradient id="paint10_linear" x1="34.0957" y1="22.8923" x2="34.0957" y2="37.0923" gradientUnits="userSpaceOnUse">
<stop stop-color="#6321F7" stop-opacity="0.7"/>
<stop offset="1" stop-color="#1A48EE" stop-opacity="0.7"/>
</linearGradient>
<linearGradient id="paint11_linear" x1="25.17" y1="43.198" x2="25.17" y2="54.6309" gradientUnits="userSpaceOnUse">
<stop stop-color="#6321F7" stop-opacity="0.7"/>
<stop offset="1" stop-color="#1A48EE" stop-opacity="0.7"/>
</linearGradient>
<linearGradient id="paint12_linear" x1="42.1302" y1="43.6548" x2="42.1302" y2="54.4462" gradientUnits="userSpaceOnUse">
<stop stop-color="#6321F7" stop-opacity="0.7"/>
<stop offset="1" stop-color="#1A48EE" stop-opacity="0.7"/>
</linearGradient>
</defs>
</svg>
